<?xml version="1.0" encoding="UTF-8" standalone="no"?>
<!-- Created with Inkscape (http://www.inkscape.org/) -->

<svg
   xmlns:dc="http://purl.org/dc/elements/1.1/"
   xmlns:cc="http://creativecommons.org/ns#"
   xmlns:rdf="http://www.w3.org/1999/02/22-rdf-syntax-ns#"
   xmlns:svg="http://www.w3.org/2000/svg"
   xmlns="http://www.w3.org/2000/svg"
   xmlns:sodipodi="http://sodipodi.sourceforge.net/DTD/sodipodi-0.dtd"
   xmlns:inkscape="http://www.inkscape.org/namespaces/inkscape"
   width="64px"
   height="64px"
   viewBox="0 0 64 64"
   version="1.1"
   id="SVGRoot"
   sodipodi:docname="ic_bird_killed.svg"
   inkscape:version="0.92.3 (2405546, 2018-03-11)">
  <defs
     id="defs4806" />
  <sodipodi:namedview
     id="base"
     pagecolor="#ffffff"
     bordercolor="#666666"
     borderopacity="1.0"
     inkscape:pageopacity="0.0"
     inkscape:pageshadow="2"
     inkscape:zoom="1.9999999"
     inkscape:cx="-29.827301"
     inkscape:cy="-8.4274081"
     inkscape:document-units="px"
     inkscape:current-layer="layer1"
     showgrid="false"
     inkscape:window-width="1162"
     inkscape:window-height="621"
     inkscape:window-x="373"
     inkscape:window-y="436"
     inkscape:window-maximized="0"
     inkscape:grid-bbox="true" />
  <metadata
     id="metadata4809">
    <rdf:RDF>
      <cc:Work
         rdf:about="">
        <dc:format>image/svg+xml</dc:format>
        <dc:type
           rdf:resource="http://purl.org/dc/dcmitype/StillImage" />
        <dc:title></dc:title>
      </cc:Work>
    </rdf:RDF>
  </metadata>
  <g
     inkscape:label="Layer 1"
     inkscape:groupmode="layer"
     id="layer1">
    <circle
       style="fill:#ff0000;fill-opacity:1;stroke-width:1.27999997"
       id="path4409-1"
       cx="32"
       cy="32"
       r="32" />
    <circle
       style="fill:#800000;fill-opacity:1;stroke-width:1.23999989"
       id="path4409"
       cx="32"
       cy="32"
       r="31" />
    <g
       transform="matrix(1.2974846,0,0,-1.2974846,-174.22064,290.84752)"
       id="g5857"
       style="fill:#ffffff">
      <g
         transform="translate(156.4795,208.3652)"
         id="g4283"
         style="fill:#ffffff">
        <path
           inkscape:connector-curvature="0"
           id="path4285"
           style="fill:#ffffff;fill-opacity:1;fill-rule:nonzero;stroke:none"
           d="m 0,0 c 1.862,-3.514 -5.648,-6.183 -9.622,-6.183 -3.974,0 -6.718,2.396 -6.114,6.325 0.73,4.73 2.576,6.039 6.551,6.039 C -5.211,6.181 -1.987,3.751 0,0" />
      </g>
      <g
         transform="translate(171.1094,195.4785)"
         id="g4287"
         style="fill:#ffffff">
        <path
           inkscape:connector-curvature="0"
           id="path4289"
           style="fill:#ffffff;fill-opacity:1;fill-rule:nonzero;stroke:none"
           d="m 0,0 c -6.203,-6.028 -13.788,-7.57 -21.172,-5.326 -3.4,1.032 -5.729,3.412 -7.318,6.346 -1.806,3.334 0.068,5.684 0.577,6.898 0.565,1.347 7.278,8.361 17.488,1.98 C -4.602,6.259 -2.419,3.587 0,0" />
      </g>
      <g
         transform="translate(144.0923,209.0156)"
         id="g4291"
         style="fill:#ffffff">
        <path
           inkscape:connector-curvature="0"
           id="path4293"
           style="fill:#ffffff;fill-opacity:1;fill-rule:nonzero;stroke:none"
           d="m 0,0 c 0,0 -6.115,-1.019 -7.133,-2.912 1.458,-0.834 8.296,-1.164 8.296,-1.164" />
      </g>
      <g
         transform="translate(166.3623,198.0986)"
         id="g4295"
         style="fill:#ffffff">
        <path
           inkscape:connector-curvature="0"
           id="path4297"
           style="fill:#ffffff;fill-opacity:1;fill-rule:nonzero;stroke:none"
           d="M 0,0 14.556,-4.657 13.683,-5.968 -0.726,-2.983 Z" />
      </g>
      <g
         transform="translate(161.3496,192.5859)"
         id="g4299"
         style="fill:#ffffff">
        <path
           inkscape:connector-curvature="0"
           id="path4301"
           style="fill:#ffffff;fill-opacity:1;fill-rule:nonzero;stroke:none"
           d="m 0,0 -3.216,-8.337 3.932,-0.254 -4.194,-0.571 -3.615,-2.054 1.498,1.601 -4.149,-0.888 3.732,1.515 -3.258,-0.325 4.641,1.261 3.394,7.949" />
      </g>
      <g
         transform="translate(156.124,192.2256)"
         id="g4303"
         style="fill:#ffffff">
        <path
           inkscape:connector-curvature="0"
           id="path4305"
           style="fill:#ffffff;fill-opacity:1;fill-rule:nonzero;stroke:none"
           d="m 0,0 -5.102,-6.74 3.235,-0.365 -3.493,-0.461 -3.639,-2.039 1.244,1.526 -3.874,-0.827 3.734,1.513 -3.26,-0.323 4.643,1.259 5.279,6.354" />
      </g>
    </g>
  </g>
</svg>
