<?xml version="1.0" encoding="UTF-8" standalone="no"?>
<!-- Created with Inkscape (http://www.inkscape.org/) -->

<svg
   xmlns:dc="http://purl.org/dc/elements/1.1/"
   xmlns:cc="http://creativecommons.org/ns#"
   xmlns:rdf="http://www.w3.org/1999/02/22-rdf-syntax-ns#"
   xmlns:svg="http://www.w3.org/2000/svg"
   xmlns="http://www.w3.org/2000/svg"
   xmlns:sodipodi="http://sodipodi.sourceforge.net/DTD/sodipodi-0.dtd"
   xmlns:inkscape="http://www.inkscape.org/namespaces/inkscape"
   width="64px"
   height="64px"
   viewBox="0 0 64 64"
   version="1.1"
   id="SVGRoot"
   sodipodi:docname="ic_frog_killed.svg"
   inkscape:version="0.92.3 (2405546, 2018-03-11)">
  <defs
     id="defs4806" />
  <sodipodi:namedview
     id="base"
     pagecolor="#ffffff"
     bordercolor="#666666"
     borderopacity="1.0"
     inkscape:pageopacity="0.0"
     inkscape:pageshadow="2"
     inkscape:zoom="2.828427"
     inkscape:cx="-34.559737"
     inkscape:cy="1.9743827"
     inkscape:document-units="px"
     inkscape:current-layer="layer1"
     showgrid="false"
     inkscape:window-width="1162"
     inkscape:window-height="621"
     inkscape:window-x="451"
     inkscape:window-y="498"
     inkscape:window-maximized="0"
     inkscape:grid-bbox="true" />
  <metadata
     id="metadata4809">
    <rdf:RDF>
      <cc:Work
         rdf:about="">
        <dc:format>image/svg+xml</dc:format>
        <dc:type
           rdf:resource="http://purl.org/dc/dcmitype/StillImage" />
        <dc:title></dc:title>
      </cc:Work>
    </rdf:RDF>
  </metadata>
  <g
     inkscape:label="Layer 1"
     inkscape:groupmode="layer"
     id="layer1">
    <circle
       style="fill:#ff0000;fill-opacity:1;stroke-width:1.27999997"
       id="path4409-1"
       cx="32.378643"
       cy="32"
       r="32" />
    <circle
       style="fill:#800000;fill-opacity:1;stroke-width:1.23999989"
       id="path4409"
       cx="32.378643"
       cy="32"
       r="31" />
    <g
       id="g4243"
       transform="matrix(0.84137263,0,0,-0.84137263,54.340128,36.739605)"
       style="fill:#ffffff">
      <path
         d="m 0,0 2.858,1.64 -10.191,-1.848 -4.292,-0.584 c 0,0 4.387,16.436 3.532,17.664 -0.854,1.228 -2.445,4.108 -5.032,2.215 -2.587,-1.894 -4.504,-9.394 -4.504,-9.394 -0.511,0.975 -0.738,3.253 -1.329,3.932 -2.091,2.395 -4.413,3.837 -6.989,5.164 0,0 3.396,3.207 3.33,4.813 -0.067,1.605 -4.511,6.512 -4.511,6.512 L -28.625,33 v -2.5 l -3.25,1.125 2.125,-2.375 -2.031,-1.063 2.214,-0.749 -0.245,-1.593 1.059,0.752 1.534,-2.338 c 0,0 -1.347,-2.822 -1.827,-3.46 -0.038,-0.051 -0.413,0.055 -0.538,1.493 -0.251,1.66 -5.435,6.93 -11.791,8.208 -0.859,0.173 -3.229,0.41 -4.281,0.177 -0.508,-0.112 -1.815,-1.212 -2.094,-1.594 -0.421,-0.575 -0.959,-2.642 -0.959,-3.625 0,-2.791 0.468,-4.267 1.153,-6.702 1.065,-3.782 3.654,-7.044 4.681,-6.964 0.255,-0.01 1.805,-0.393 1.976,-0.654 0.058,-0.09 0.069,-0.199 0.104,-0.295 l -3.48,-0.977 -2.816,2.114 0.929,0.652 -1.938,0.375 0.6,2.868 -2.34,-2.228 -0.956,3.811 -0.72,-3.865 -2.533,1.032 1.924,-2.187 1.059,-1.59 c 0,0 3.437,-5.397 5.158,-5.404 1.72,-0.007 6.626,2.023 6.626,2.023 0.972,-2.783 1.79,-5.083 3.922,-7.526 0.597,-0.684 2.375,-1.009 3.026,-1.285 0,0 -6.875,-0.644 -9.014,-1.781 -3.652,-1.941 -2.216,-3.391 -1.09,-5.227 1.125,-1.836 19.063,-1.023 19.063,-1.023 l -1.083,-3.5 -0.667,-2.5 -2.666,-7.324 1.616,0.858 -0.906,-3.627 2.218,3.698 -1.063,-6.687 2.926,5.758 0.063,-4.988 1.219,4.988 0.234,-2.488 1.359,8.812 c 0,0 1.958,8.76 1.667,10.625 -0.08,0.513 -0.673,1.639 -1.558,1.864 -0.859,0.219 0.375,0.318 0.644,0.388 0.789,0.206 1.242,0.88 1.242,0.88 0,0 -0.149,-0.387 -0.037,-0.924 0.108,-0.518 0.796,-1.219 1.044,-1.422 1.191,-0.978 9.615,-0.411 9.615,-0.411 h 9.567 l -1.361,1.003 4.552,0.42 -1.963,1.201 4.441,1.481 -4.241,0.135 2.829,2.13 z"
         style="fill:#ffffff;fill-opacity:1;fill-rule:nonzero;stroke:none"
         id="path4245"
         inkscape:connector-curvature="0" />
    </g>
  </g>
</svg>
