<?xml version="1.0" encoding="UTF-8" standalone="no"?>
<!-- Created with Inkscape (http://www.inkscape.org/) -->

<svg
   xmlns:dc="http://purl.org/dc/elements/1.1/"
   xmlns:cc="http://creativecommons.org/ns#"
   xmlns:rdf="http://www.w3.org/1999/02/22-rdf-syntax-ns#"
   xmlns:svg="http://www.w3.org/2000/svg"
   xmlns="http://www.w3.org/2000/svg"
   xmlns:sodipodi="http://sodipodi.sourceforge.net/DTD/sodipodi-0.dtd"
   xmlns:inkscape="http://www.inkscape.org/namespaces/inkscape"
   width="64px"
   height="64px"
   viewBox="0 0 64 64"
   version="1.1"
   id="SVGRoot"
   sodipodi:docname="ic_reptile_killed.svg"
   inkscape:version="0.92.3 (2405546, 2018-03-11)">
  <defs
     id="defs4806" />
  <sodipodi:namedview
     id="base"
     pagecolor="#ffffff"
     bordercolor="#666666"
     borderopacity="1.0"
     inkscape:pageopacity="0.0"
     inkscape:pageshadow="2"
     inkscape:zoom="2.828427"
     inkscape:cx="-34.559737"
     inkscape:cy="1.9743827"
     inkscape:document-units="px"
     inkscape:current-layer="layer1"
     showgrid="false"
     inkscape:window-width="1162"
     inkscape:window-height="621"
     inkscape:window-x="397"
     inkscape:window-y="490"
     inkscape:window-maximized="0"
     inkscape:grid-bbox="true" />
  <metadata
     id="metadata4809">
    <rdf:RDF>
      <cc:Work
         rdf:about="">
        <dc:format>image/svg+xml</dc:format>
        <dc:type
           rdf:resource="http://purl.org/dc/dcmitype/StillImage" />
        <dc:title></dc:title>
      </cc:Work>
    </rdf:RDF>
  </metadata>
  <g
     inkscape:label="Layer 1"
     inkscape:groupmode="layer"
     id="layer1">
    <circle
       style="fill:#ff0000;fill-opacity:1;stroke-width:1.27999997"
       id="path4409-1"
       cx="32.378643"
       cy="32"
       r="32" />
    <circle
       style="fill:#800000;fill-opacity:1;stroke-width:1.23999989"
       id="path4409"
       cx="32.378643"
       cy="32"
       r="31" />
    <g
       id="g4367"
       transform="matrix(1.1064427,0,0,-1.1064427,32.675422,45.816015)"
       style="fill:#ffffff">
      <path
         d="m 0,0 c -1.028,1.206 -1.028,1.206 -1.893,2.176 0,0 -4.369,1.619 -4.086,0.965 0.501,-1.157 2.348,-2.241 2.928,-2.616 0.581,-0.373 0.009,-2.886 0.009,-2.886 l 0.801,-4.261 -1.213,3.69 -0.239,-6.134 -0.078,6.368 -1.506,-5.782 1.111,6.769 -1.772,-3.025 1.627,3.952 -2.125,-0.006 2.081,0.453 c 0,0 -3.893,3.336 -3.635,4.687 0.168,0.886 3.623,0.451 3.623,0.451 -0.482,0.658 -3.975,4.673 -3.975,4.673 -1.692,2.564 -1.692,2.564 -3.754,6.605 l -4.184,-1.715 -2.212,2.53 -2.836,0.965 1.775,-0.251 -3.058,2.064 3.015,-1.376 -1.924,2.55 2.273,-2.368 -0.169,1.569 0.84,-1.899 1.428,1.168 -1.209,-1.461 2.459,-2.229 2.831,1.553 c -0.021,0.044 -0.035,0.086 -0.056,0.128 -0.471,1.054 -1.342,2.252 -1.342,2.252 0,0 -1.91,1.446 -2.964,3.642 -2.015,4.207 -1.913,5.366 -1.359,5.802 0.515,0.404 1.771,-0.425 4.552,-3.111 1.969,-1.905 2.513,-3.44 2.649,-4.143 0.53,-0.603 0.929,-1.084 1.444,-1.497 0.037,-0.029 0.198,-0.231 0.236,-0.258 l 1.884,2.713 -1.79,2.798 -1.642,-0.948 1.391,1.212 -1.733,1.145 1.521,-0.427 -1.958,2.634 2.193,-2.321 -0.855,3.202 1.525,-3.358 0.049,1.793 0.479,-2.958 2.127,-2.604 -1.83,-3.619 c 1.997,-2.303 3.845,-4.877 5.497,-6.763 0.561,-0.639 2.378,-4.137 2.888,-4.772 0,0 0.067,3.825 0.966,3.754 1.37,-0.106 3.572,-4.732 3.572,-4.732 L 5.359,8.631 4.799,6.581 9.038,7.118 5.654,6.199 12.479,5.502 6.505,5.558 12.629,3.82 6.646,5.192 9.892,3.058 5.99,4.942 c 0,0 -2.578,0.107 -2.787,0.765 C 2.992,6.364 2.432,8.432 1.445,9.217 0.889,9.661 1.308,5.02 1.308,5.02 2.607,2.882 3.159,2.105 4.159,0.924 c 0.73,-0.862 2.039,-4.183 5.517,-5.67 1.752,-0.749 4.688,-1.534 7.099,-0.316 3.239,1.636 3.684,5.326 0.883,11.642 -1.167,2.625 -2.287,4.399 -5.051,7.588 -2.773,3.2 -5.265,3.802 -9.551,6.502 -4.884,3.078 -5.175,15.287 -5.175,15.287 0,0 0.155,-11.545 5.852,-14.877 4.439,-2.597 7.44,-3.867 9.803,-6.151 C 15.9,12.645 17.051,10.728 18.594,8.3 22.401,2.311 22.735,-3.835 17.424,-6.917 14.723,-8.484 11.521,-7.982 9.226,-7.282 3.797,-5.635 0.725,-0.848 0,0"
         style="fill:#ffffff;fill-opacity:1;fill-rule:nonzero;stroke:none"
         id="path4369"
         inkscape:connector-curvature="0" />
    </g>
  </g>
</svg>
