<?xml version="1.0" encoding="UTF-8" standalone="no"?>
<!-- Generator: Adobe Illustrator 18.1.1, SVG Export Plug-In . SVG Version: 6.00 Build 0)  -->

<svg
   xmlns:dc="http://purl.org/dc/elements/1.1/"
   xmlns:cc="http://creativecommons.org/ns#"
   xmlns:rdf="http://www.w3.org/1999/02/22-rdf-syntax-ns#"
   xmlns:svg="http://www.w3.org/2000/svg"
   xmlns="http://www.w3.org/2000/svg"
   xmlns:sodipodi="http://sodipodi.sourceforge.net/DTD/sodipodi-0.dtd"
   xmlns:inkscape="http://www.inkscape.org/namespaces/inkscape"
   version="1.1"
   id="Capa_1"
   x="0px"
   y="0px"
   viewBox="0 0 612 612"
   style="enable-background:new 0 0 612 612;"
   xml:space="preserve"
   sodipodi:docname="skull.svg"
   inkscape:version="0.92.4 (5da689c313, 2019-01-14)"><metadata
   id="metadata110"><rdf:RDF><cc:Work
       rdf:about=""><dc:format>image/svg+xml</dc:format><dc:type
         rdf:resource="http://purl.org/dc/dcmitype/StillImage" /></cc:Work></rdf:RDF></metadata><defs
   id="defs108">
	
</defs><sodipodi:namedview
   pagecolor="#ffffff"
   bordercolor="#666666"
   borderopacity="1"
   objecttolerance="10"
   gridtolerance="10"
   guidetolerance="10"
   inkscape:pageopacity="0"
   inkscape:pageshadow="2"
   inkscape:window-width="608"
   inkscape:window-height="435"
   id="namedview106"
   showgrid="false"
   inkscape:zoom="1.1299844"
   inkscape:cx="281.30709"
   inkscape:cy="318.72677"
   inkscape:window-x="442"
   inkscape:window-y="456"
   inkscape:window-maximized="0"
   inkscape:current-layer="g71" />
<g
   id="g71">
		<path
   inkscape:connector-curvature="0"
   id="path61"
   d="m 122.855,335.491 c 3.514,11.463 7.147,23.318 8.96,35.258 0.741,4.866 3.647,40.261 5.218,59.707 0.602,7.451 6.252,13.508 13.643,14.626 l 25.821,3.904 c 3.723,0.563 6.692,3.402 7.417,7.097 l 3.402,17.401 c 1.479,7.563 8.108,13.018 15.814,13.014 l 200.241,-0.119 c 7.572,-0.005 14.118,-5.283 15.726,-12.682 l 3.896,-17.915 c 0.86,-3.536 3.782,-6.193 7.383,-6.717 l 31.437,-4.566 c 7.554,-1.097 13.3,-7.344 13.759,-14.964 1.206,-20.008 3.457,-56.434 4.155,-61.425 1.653,-11.784 5.131,-23.432 8.49,-34.764 4.709,-15.857 9.578,-32.225 9.578,-49.248 0.006,-108.709 -86.402,-197.132 -192.608,-197.132 -106.206,0 -192.613,88.471 -192.613,197.204 0.001,17.782 5.227,34.834 10.281,51.321 z m 207.43,-10.032 c 1.221,-30.877 28.91,-38.641 59.787,-37.421 30.877,1.221 53.249,10.965 52.028,41.842 -1.221,30.877 -27.241,54.918 -58.118,53.697 -30.877,-1.221 -54.918,-27.241 -53.697,-58.118 z m -18.166,60.589 20.042,29.679 c 1.778,2.632 2.021,6.011 0.639,8.871 l -2.875,5.951 c -1.489,3.081 -4.609,5.038 -8.03,5.038 h -17.167 -17.167 c -3.422,0 -6.542,-1.958 -8.03,-5.038 l -2.875,-5.951 c -1.382,-2.86 -1.138,-6.238 0.639,-8.871 l 20.042,-29.679 c 3.536,-5.237 11.246,-5.237 14.782,0 z m -91.82,-98.009 c 30.877,-1.221 58.566,6.543 59.787,37.421 1.221,30.877 -22.82,56.897 -53.697,58.118 -30.877,1.221 -56.897,-22.82 -58.118,-53.697 -1.221,-30.878 21.151,-40.622 52.028,-41.842 z"
   style="fill:#800000" />
		<path
   inkscape:connector-curvature="0"
   id="path63"
   d="M 556.35,58.611 C 558.752,43.861 554.261,28.206 542.851,16.854 524.525,-1.38 494.627,-1.712 475.922,16.133 456.364,34.792 456.088,65.779 475.094,84.785 l -17.47,17.47 c -6.98,6.981 -6.98,18.299 0,25.28 l 29.802,29.802 c 6.98,6.981 18.299,6.981 25.279,0 l 17.47,-17.47 c 19.007,19.007 49.994,18.73 68.652,-0.828 C 616.672,120.334 616.339,90.435 598.105,72.11 586.754,60.7 571.1,56.209 556.35,58.611 Z"
   style="fill:#800000" />
		<path
   inkscape:connector-curvature="0"
   id="path65"
   d="m 81.824,139.866 17.47,17.47 c 6.981,6.981 18.299,6.981 25.279,0 l 29.802,-29.802 c 6.981,-6.981 6.981,-18.299 0,-25.28 l -17.47,-17.47 C 155.912,65.778 155.635,34.791 136.077,16.132 117.372,-1.712 87.474,-1.38 69.148,16.854 57.739,28.206 53.248,43.861 55.65,58.611 40.9,56.209 25.246,60.7 13.893,72.109 c -18.234,18.325 -18.567,48.224 -0.722,66.929 18.659,19.558 49.646,19.834 68.653,0.828 z"
   style="fill:#800000" />
		<path
   inkscape:connector-curvature="0"
   id="path67"
   d="m 598.829,472.962 c -18.659,-19.559 -49.646,-19.834 -68.652,-0.828 l -17.47,-17.47 c -6.981,-6.981 -18.299,-6.981 -25.279,0 l -29.802,29.802 c -6.98,6.981 -6.98,18.299 0,25.28 l 17.47,17.47 c -19.007,19.007 -18.73,49.994 0.828,68.652 18.705,17.845 48.604,17.513 66.929,-0.721 11.41,-11.352 15.901,-27.007 13.499,-41.757 14.75,2.402 30.404,-2.089 41.756,-13.499 18.233,-18.326 18.565,-48.224 0.721,-66.929 z"
   style="fill:#800000" />
		<path
   inkscape:connector-curvature="0"
   id="path69"
   d="m 55.65,553.389 c -2.402,14.75 2.089,30.405 13.499,41.757 18.326,18.234 48.224,18.566 66.929,0.721 19.558,-18.659 19.834,-49.646 0.828,-68.652 l 17.47,-17.47 c 6.981,-6.98 6.981,-18.299 0,-25.28 l -29.802,-29.802 c -6.981,-6.981 -18.299,-6.981 -25.279,0 l -17.47,17.47 C 62.818,453.126 31.831,453.402 13.173,472.961 -4.672,491.666 -4.34,521.564 13.894,539.89 25.246,551.3 40.9,555.791 55.65,553.389 Z"
   style="fill:#800000" />
	</g>
<g
   id="g75">
</g>
<g
   id="g77">
</g>
<g
   id="g79">
</g>
<g
   id="g81">
</g>
<g
   id="g83">
</g>
<g
   id="g85">
</g>
<g
   id="g87">
</g>
<g
   id="g89">
</g>
<g
   id="g91">
</g>
<g
   id="g93">
</g>
<g
   id="g95">
</g>
<g
   id="g97">
</g>
<g
   id="g99">
</g>
<g
   id="g101">
</g>
<g
   id="g103">
</g>
</svg>